<?xml version="1.0" standalone="no"?><!DOCTYPE svg PUBLIC "-//W3C//DTD SVG 1.1//EN" "http://www.w3.org/Graphics/SVG/1.1/DTD/svg11.dtd"><svg t="1593589236044" class="icon" viewBox="0 0 1024 1024" version="1.1" xmlns="http://www.w3.org/2000/svg" p-id="5380" xmlns:xlink="http://www.w3.org/1999/xlink" width="200" height="200"><defs><style type="text/css"></style></defs><path d="M12.93386738 172.28801153c0 75.33935093 152.04850914 136.52403804 340.16859091 136.52403797s340.16859094-61.18468707 340.16858715-136.52403797-152.96171403-136.52403804-341.08179201-136.52403805c-187.20687313 0-339.25538606 61.18468707-339.25538605 136.52403805z m0 0M927.05133934 468.62279611c-55.70546176-55.24885934-131.50141516-86.29780158-210.03698293-86.2978015-120.08636209 0-228.30106487 71.22993289-274.87448205 181.72764778-46.5734171 109.58451009-20.54709779 236.51990477 63.9242979 321.44790283 84.92799808 83.55819082 212.77659382 109.58451009 324.64411609 63.92429788 111.86752223-45.66021218 184.01065998-152.96171403 184.01065989-271.67826885-0.45660243-78.07896553-31.96215084-153.41831639-87.6676089-209.12377814z m-191.31629495 368.93452471c-0.45660243 0-0.45660243 0.45660243 0 0l-0.45660236 26.48292549c0 10.50184819-8.6754423 19.1772905-19.17728673 19.17728686-10.50184819 0-19.1772905-8.6754423-19.1772905-19.17728686v-26.02632298s0-0.45660243-0.45660245-0.45660251c-23.74331093-3.19621316-47.94322435-11.41505307-68.03371963-23.74331091-4.56602047-2.73961455-7.76223746-7.76223746-8.67543852-12.78486031-0.91320485-5.47922532 0.45660243-10.95845062 4.10941803-15.52447117 6.3924301-7.76223746 17.35088081-9.58864337 25.56972068-4.10942175 21.00369637 13.24146279 41.5507942 20.09049536 63.01109299 20.09049529 34.70176164 0 54.7922569-15.98107352 54.79225693-43.37720384 0-33.33195434-31.04894596-47.4866219-63.92429783-62.09788815l-0.91320488-0.45660245c-38.35458103-17.35088081-78.07896553-35.15836398-78.07896547-84.01479319 0-39.26778206 29.2225363-70.31672803 73.05634259-78.0789655 0 0 0.45660243 0 0.45660242-0.45660247V506.52077468c0-10.50184819 8.21883987-18.72068805 18.72068429-18.72068806s18.72068805 8.21883987 18.72068808 18.72068806v26.02632311s0 0.45660243 0.45660236 0.45659858c13.69806518 1.8264097 26.48292545 5.47922532 37.89797863 11.41505686 10.50184819 5.47922532 17.80748323 12.78486035 20.09049156 20.54709396 1.36980727 4.56602047 0.91320485 8.6754423-1.36980347 12.78486036-9.13204092 15.52447107-26.48292545 5.47922532-33.78856057 1.36980731-11.41505307-6.3924301-23.28670856-9.13204092-39.26778208-9.13204473-29.2225363 0-47.94322435 15.98107352-47.94322433 40.63758937 0 27.85272907 26.02632314 39.26778206 58.90167494 53.42244964l0.91320491 0.45660242c38.81117963 16.89427833 83.10158837 36.07156888 83.10158831 92.23363304-0.45660243 42.92060151-29.67913868 73.51294503-78.5355679 80.81857622zM365.88731865 695.55405753h-13.69806522c-188.12007806 0-340.16859094-58.90167497-340.16859094-136.52403803v117.80334992c0 75.33935093 152.04850914 136.52403804 340.16859094 136.52403809h41.5507942c-16.43767595-37.44137618-25.56972066-77.62236303-27.85272898-117.80334998z" p-id="5381"></path><path d="M392.37024035 544.41875323c2.28301214-5.93582774 5.02262286-11.41505307 7.76223742-17.35088453-15.98107352 0.91320485-31.96215084 0.91320485-48.39982678 0.91320482-187.20687313 0-339.25538606-61.18468707-339.25538604-138.35044394v117.80334995c0 75.33935093 152.04850914 136.52403804 340.16859092 136.52403804h14.1546676c3.65281558-33.78855673 11.87165552-67.57711726 25.56971688-99.53926434z" p-id="5382"></path><path d="M693.27104544 330.27235223V227.99347331c-5.02262286 73.51294503-155.2447261 133.32782107-340.16858715 133.32782105s-341.08179196-61.18468707-341.0817958-136.52403424V342.14400761c0.91320485 76.70915823 152.96171403 137.43724291 340.16859094 137.43723916 26.48292545 0 52.50924481-1.36980727 78.99217031-3.65281565 60.27148224-84.47139564 156.15793095-138.35044774 262.0896217-145.65607889z" p-id="5383"></path></svg>