<?xml version="1.0" standalone="no"?><!DOCTYPE svg PUBLIC "-//W3C//DTD SVG 1.1//EN" "http://www.w3.org/Graphics/SVG/1.1/DTD/svg11.dtd"><svg t="1593582289358" class="icon" viewBox="0 0 1024 1024" version="1.1" xmlns="http://www.w3.org/2000/svg" p-id="1945" xmlns:xlink="http://www.w3.org/1999/xlink" width="200" height="200"><defs><style type="text/css"></style></defs><path d="M654.933333 977.066667H369.066667c-78.933333 0-142.933333-64-142.933334-142.933334V162.133333c0-78.933333 64-142.933333 142.933334-142.933333h285.866666c78.933333 0 142.933333 64 142.933334 142.933333v672c0 78.933333-64 142.933333-142.933334 142.933334zM369.066667 83.2c-42.666667 0-78.933333 36.266667-78.933334 78.933333v672c0 42.666667 36.266667 78.933333 78.933334 78.933334h285.866666c42.666667 0 78.933333-36.266667 78.933334-78.933334V162.133333c0-42.666667-36.266667-78.933333-78.933334-78.933333H369.066667z" fill="#ffffff" p-id="1946"></path><path d="M512 870.4c-64 0-115.2-51.2-115.2-115.2S448 640 512 640s115.2 51.2 115.2 115.2-51.2 115.2-115.2 115.2z m0-166.4c-27.733333 0-51.2 23.466667-51.2 51.2 0 27.733333 23.466667 51.2 51.2 51.2s51.2-23.466667 51.2-51.2c0-27.733333-23.466667-51.2-51.2-51.2z" fill="#ffffff" p-id="1947"></path></svg>