<?xml version="1.0" standalone="no"?><!DOCTYPE svg PUBLIC "-//W3C//DTD SVG 1.1//EN" "http://www.w3.org/Graphics/SVG/1.1/DTD/svg11.dtd"><svg t="1593589264284" class="icon" viewBox="0 0 1024 1024" version="1.1" xmlns="http://www.w3.org/2000/svg" p-id="6076" xmlns:xlink="http://www.w3.org/1999/xlink" width="200" height="200"><defs><style type="text/css"></style></defs><path d="M32.020159 799.987905c0 35.3429 28.653389 63.997312 63.997312 63.997312l831.965057 0c35.3429 0 63.997312-28.654413 63.997312-63.997312L991.979841 384.013567 32.020159 384.013567 32.020159 799.987905zM629.214405 479.821128l119.167091 0c27.405185 0 48.152602 7.062231 62.24737 21.155975 14.077361 14.109103 21.124233 33.866354 21.124233 59.270727s-7.046872 45.247636-21.124233 59.465278c-14.093744 14.249386-34.842185 21.219461-62.24737 20.969615l-82.996834 0 0 111.307197-36.170257 0L629.214405 479.821128zM494.063345 479.821128l36.170257 0 0 272.168793-36.170257 0L494.063345 479.821128zM230.996506 479.821128l77.669186 235.952458 0.748513 0 78.43613-235.952458 37.685713 0L328.834573 751.98992l-41.107777 0-95.558739-272.168793L230.996506 479.821128z" p-id="6077"></path><path d="M927.982529 160.014783 96.017471 160.014783c-35.343924 0-63.997312 28.654413-63.997312 63.997312l0 96.00416 959.959682 0 0-96.00416C991.979841 188.669196 963.325428 160.014783 927.982529 160.014783zM288.010432 280.009232 288.010432 280.009232c-0.001024 4.421446-3.57873 8.007344-8.0012 8.007344L136.016303 288.016575c-4.420422 0-8.000176-3.585897-8.000176-8.007344l0-15.999328c0-4.421446 3.577706-8.000176 8.000176-8.000176l143.993952 0c4.421446 0 8.000176 3.577706 8.000176 8.000176L288.010432 280.009232z" p-id="6078"></path><path d="M781.300689 597.620212c9.532016-8.655508 14.280104-21.093514 14.280104-37.372382 0-16.249174-4.750136-28.654413-14.280104-37.15428-9.515632-8.523418-24.546297-12.773863-45.108377-12.773863l-70.80765 0 0 99.86243 70.80765 0C756.75644 610.43401 771.785057 606.246026 781.300689 597.620212z" p-id="6079"></path></svg>