<?xml version="1.0" standalone="no"?><!DOCTYPE svg PUBLIC "-//W3C//DTD SVG 1.1//EN" "http://www.w3.org/Graphics/SVG/1.1/DTD/svg11.dtd"><svg t="1593590685048" class="icon" viewBox="0 0 1024 1024" version="1.1" xmlns="http://www.w3.org/2000/svg" p-id="7616" xmlns:xlink="http://www.w3.org/1999/xlink" width="200" height="200"><defs><style type="text/css"></style></defs><path d="M526.4 43.2c-25.6 0-46.4 20.8-46.4 48v396.8l-96-108.8c-9.6-9.6-20.8-16-33.6-16-25.6 0-46.4 20.8-46.4 48 0 11.2 4.8 22.4 11.2 32l176 200c9.6 9.6 20.8 16 33.6 16s25.6-6.4 33.6-16l176-200c8-8 11.2-19.2 11.2-32 0-25.6-20.8-48-46.4-48-12.8 0-25.6 6.4-33.6 16l-96 108.8V89.6c3.2-25.6-17.6-46.4-43.2-46.4z" p-id="7617"></path><path d="M107.2 582.4c-25.6 0-46.4 20.8-46.4 48V928c0 25.6 20.8 48 46.4 48h840c25.6 0 46.4-20.8 46.4-48V628.8c0-25.6-20.8-48-46.4-48s-46.4 20.8-46.4 48v252.8H153.6V628.8c0-25.6-20.8-46.4-46.4-46.4z" p-id="7618"></path></svg>