<?xml version="1.0" standalone="no"?><!DOCTYPE svg PUBLIC "-//W3C//DTD SVG 1.1//EN" "http://www.w3.org/Graphics/SVG/1.1/DTD/svg11.dtd"><svg t="1593357151226" class="icon" viewBox="0 0 1024 1024" version="1.1" xmlns="http://www.w3.org/2000/svg" p-id="1803" xmlns:xlink="http://www.w3.org/1999/xlink" width="200" height="200"><defs><style type="text/css"></style></defs><path d="M419.763273 608.627734c11.754718-12.896728 23.249517-25.530466 34.772968-38.136575 4.455475-4.874007 8.947789-9.715269 13.478989-14.519692 11.985986-12.707416 24.054859-25.338085 35.992749-38.090527 13.190417-14.089903 26.279526-28.27395 39.398312-42.429345 12.771885-13.780865 25.520233-27.584242 38.291095-41.36613 13.118785-14.156418 26.252921-28.29851 39.381939-42.445718 13.244652-14.272052 26.497491-28.53694 39.736003-42.815131 12.891611-13.902638 25.764803-27.822672 38.655392-41.726334 13.121855-14.153348 26.250874-28.300556 39.387056-42.440601 13.600763-14.639418 26.967188-29.507034 40.895409-43.828204 12.156878-12.499685 27.1565-19.49296 44.627407-21.791305 28.54615-3.753487 51.93279 6.132674 70.807672 26.762527 11.796674 12.893658 18.853393 28.548196 21.277606 46.155203 3.460822 25.130354-0.805342 48.494481-15.506159 69.436442-4.139274 5.89629-9.092076 11.261485-13.992689 16.573467-10.920724 11.835559-22.092158 23.438828-33.07121 35.221176-12.4608 13.372565-24.833595 26.825972-37.223786 40.263006-11.813047 12.811794-23.587208 25.659403-35.400255 38.471197-12.390191 13.438057-24.812105 26.846438-37.20946 40.276309-12.167111 13.180184-24.315802 26.377764-36.481889 39.557948-12.397355 13.430894-24.817222 26.841322-37.210483 40.276309-11.93175 12.933567-23.836895 25.891693-35.764552 38.82833-12.274558 13.31219-24.562419 26.613124-36.845163 39.918151-12.282744 13.305027-24.567535 26.608008-36.846186 39.917128-12.163017 13.183254-24.316825 26.376741-36.480866 39.558971-12.395308 13.43294-25.065885 26.623357-37.120432 40.356127-10.640338 12.122085-21.48022 23.814382-36.671201 30.29191-20.184715 8.607028-40.648792 9.354042-61.182454 1.412163-15.928784-6.161327-28.197202-16.943904-38.471197-30.485315-6.401804-8.438183-13.879102-16.056698-20.795629-24.109094-9.755178-11.357675-19.415189-22.797215-29.161157-34.162054-6.79987-7.9296-13.707187-15.766079-20.511149-23.691585-9.973142-11.618619-19.856233-23.313985-29.853935-34.911114-9.242502-10.720156-18.644639-21.303188-27.868721-32.038694-9.535167-11.097756-18.875906-22.36231-28.42233-33.450856-9.457396-10.984169-19.136849-21.775956-28.585035-32.768311-9.315156-10.838859-18.574031-21.729907-27.643594-32.774451-6.161327-7.502881-12.586666-14.908548-17.752316-23.079648-6.945179-10.987239-10.031471-23.424502-11.504008-36.414351-1.661849-14.662955 0.199545-28.665877 5.13802-42.441625 9.853415-27.488051 28.713972-46.165436 56.646138-53.898561 25.297153-7.004531 49.490158-2.447748 69.797669 14.975063 9.244548 7.931646 16.924461 17.704221 25.188682 26.75741 5.342682 5.853311 10.509355 11.870352 15.661701 17.893532 9.622148 11.247158 19.132756 22.590508 28.776394 33.82027 7.137561 8.311293 14.475689 16.45067 21.612227 24.762987 9.531074 11.101849 18.905582 22.337751 28.438703 33.437553 7.249101 8.44023 14.705933 16.70138 21.954011 25.14161 9.42158 10.971889 18.706037 22.061458 28.097942 33.05893C413.154761 601.399099 416.266635 604.728938 419.763273 608.627734z" p-id="1804" fill="#ffffff"></path></svg>